<?xml version="1.0" encoding="UTF-8"?><svg id="Layer_1" xmlns="http://www.w3.org/2000/svg" viewBox="0 0 375 375"><defs><style>.cls-1{fill:#ffde18;}.cls-2{fill:#ffaa0a;}.cls-3{fill:#fde8ae;}.cls-4{fill:#b67933;}.cls-5{fill:#bd6405;}.cls-6{fill:#753d00;}</style></defs><rect class="cls-6" x="225.09" y="348.21" width="49.97" height="26.79"/><rect class="cls-5" x="125.16" y="348.21" width="99.94" height="26.79"/><rect class="cls-6" x="275.06" y="321.43" width="24.98" height="26.79"/><rect class="cls-5" x="225.09" y="321.43" width="49.97" height="26.79"/><rect class="cls-5" x="75.19" y="321.43" width="49.97" height="26.79"/><rect class="cls-6" x="300.05" y="294.64" width="24.98" height="26.79"/><rect class="cls-5" x="275.06" y="294.64" width="24.98" height="26.79"/><rect class="cls-3" x="125.16" y="294.64" width="49.97" height="26.79"/><polygon class="cls-1" points="100.17 294.64 100.17 267.86 75.19 267.86 75.19 133.93 100.17 133.93 100.17 107.14 125.16 107.14 125.16 80.36 225.09 80.36 225.09 53.57 175.13 53.57 175.13 26.79 125.16 26.79 125.16 53.57 75.19 53.57 75.19 80.36 50.2 80.36 50.2 133.93 25.22 133.93 25.22 241.07 50.2 241.07 50.2 294.64 75.19 294.64 75.19 321.43 125.16 321.43 125.16 294.64 100.17 294.64"/><rect class="cls-5" x="50.2" y="294.64" width="24.98" height="26.79"/><rect class="cls-3" x="100.17" y="267.86" width="24.98" height="26.79"/><rect class="cls-5" x="25.22" y="241.07" width="24.98" height="53.57"/><rect class="cls-6" x="325.03" y="241.07" width="24.98" height="53.57"/><rect class="cls-5" x="300.05" y="241.07" width="24.98" height="53.57"/><rect class="cls-4" x="150.14" y="241.07" width="24.98" height="26.79"/><rect class="cls-3" x="75.19" y="241.07" width="24.98" height="26.79"/><rect class="cls-4" x="125.16" y="214.29" width="24.98" height="26.79"/><rect class="cls-5" x=".24" y="133.93" width="24.98" height="107.14"/><rect class="cls-5" x="325.03" y="133.93" width="24.98" height="107.14"/><rect class="cls-3" x="200.11" y="160.71" width="24.98" height="26.79"/><rect class="cls-6" x="350.02" y="133.93" width="24.98" height="107.14"/><rect class="cls-4" x="250.08" y="133.93" width="24.98" height="26.79"/><rect class="cls-3" x="175.13" y="133.93" width="24.98" height="26.79"/><polygon class="cls-1" points="175.13 133.93 150.14 133.93 150.14 160.71 125.16 160.71 125.16 214.29 150.14 214.29 150.14 241.07 200.11 241.07 200.11 214.29 225.09 214.29 225.09 187.5 200.11 187.5 200.11 160.71 175.13 160.71 175.13 133.93"/><rect class="cls-6" x="325.03" y="80.36" width="24.98" height="53.57"/><polygon class="cls-1" points="300.05 107.14 275.06 107.14 275.06 80.36 225.09 80.36 225.09 107.14 250.08 107.14 250.08 133.93 275.06 133.93 275.06 241.07 250.08 241.07 250.08 267.86 225.09 267.86 225.09 294.64 175.13 294.64 175.13 321.43 125.16 321.43 125.16 348.21 225.09 348.21 225.09 321.43 275.06 321.43 275.06 294.64 300.05 294.64 300.05 241.07 325.03 241.07 325.03 133.93 300.05 133.93 300.05 107.14"/><rect class="cls-4" x="225.09" y="107.14" width="24.98" height="26.79"/><path class="cls-2" d="M175.13,107.14v-26.79h-49.97v26.79h-24.98v26.79h-24.98v107.14h24.98v26.79h24.98v26.79h99.94v-26.79h24.98v-26.79h24.98v-80.36h-24.98v-26.79h-24.98v-26.79h-49.97Zm49.97,53.57v53.57h-24.98v26.79h-24.98v26.79h-24.98v-26.79h-24.98v-80.36h24.98v-26.79h49.97v26.79h24.98Z"/><rect class="cls-5" x="25.22" y="80.36" width="24.98" height="53.57"/><rect class="cls-5" x="300.05" y="80.36" width="24.98" height="53.57"/><rect class="cls-3" x="275.06" y="80.36" width="24.98" height="26.79"/><rect class="cls-4" x="175.13" y="80.36" width="49.97" height="26.79"/><rect class="cls-6" x="300.05" y="53.57" width="24.98" height="26.79"/><rect class="cls-5" x="275.06" y="53.57" width="24.98" height="26.79"/><rect class="cls-3" x="225.09" y="53.57" width="49.97" height="26.79"/><rect class="cls-5" x="50.2" y="53.57" width="24.98" height="26.79"/><rect class="cls-6" x="275.06" y="26.79" width="24.98" height="26.79"/><rect class="cls-5" x="225.09" y="26.79" width="49.97" height="26.79"/><rect class="cls-3" x="175.13" y="26.79" width="49.97" height="26.79"/><rect class="cls-5" x="75.19" y="26.79" width="49.97" height="26.79"/><rect class="cls-6" x="225.09" width="49.97" height="26.79"/><rect class="cls-5" x="125.16" width="99.94" height="26.79"/></svg>